<mxfile host="app.diagrams.net" modified="2023-07-04T16:49:41.011Z" agent="Mozilla/5.0 (Windows NT 10.0; Win64; x64) AppleWebKit/537.36 (KHTML, like Gecko) Chrome/114.0.0.0 Safari/537.36" etag="kYYQEuZd6HR031Q3nkrn" version="21.5.2" type="github">
  <diagram name="페이지-1" id="6kpDruOd3UBLY7x7-uIf">
    <mxGraphModel dx="1594" dy="1026" grid="0" gridSize="10" guides="1" tooltips="1" connect="1" arrows="1" fold="1" page="0" pageScale="1" pageWidth="827" pageHeight="1169" math="0" shadow="0">
      <root>
        <mxCell id="0" />
        <mxCell id="1" parent="0" />
        <mxCell id="-251E-ChE6s3VvXWPWQn-1" value="" style="rounded=0;whiteSpace=wrap;html=1;fontSize=16;" vertex="1" parent="1">
          <mxGeometry x="-3" y="-36" width="139" height="189" as="geometry" />
        </mxCell>
        <mxCell id="-251E-ChE6s3VvXWPWQn-2" value="" style="rounded=0;whiteSpace=wrap;html=1;fontSize=16;" vertex="1" parent="1">
          <mxGeometry x="162" y="-30" width="120" height="177" as="geometry" />
        </mxCell>
        <mxCell id="-251E-ChE6s3VvXWPWQn-3" value="" style="rounded=0;whiteSpace=wrap;html=1;fontSize=16;" vertex="1" parent="1">
          <mxGeometry x="301" y="7.5" width="120" height="87" as="geometry" />
        </mxCell>
        <mxCell id="-251E-ChE6s3VvXWPWQn-4" value="CPU" style="text;html=1;strokeColor=none;fillColor=none;align=center;verticalAlign=middle;whiteSpace=wrap;rounded=0;fontSize=16;" vertex="1" parent="1">
          <mxGeometry x="36.5" y="-6" width="60" height="30" as="geometry" />
        </mxCell>
        <mxCell id="-251E-ChE6s3VvXWPWQn-5" value="Control Unit" style="rounded=0;whiteSpace=wrap;html=1;fontSize=16;" vertex="1" parent="1">
          <mxGeometry x="16" y="35" width="103" height="32" as="geometry" />
        </mxCell>
        <mxCell id="-251E-ChE6s3VvXWPWQn-6" value="Logic Unit" style="rounded=0;whiteSpace=wrap;html=1;fontSize=16;" vertex="1" parent="1">
          <mxGeometry x="14.75" y="84" width="103.5" height="32" as="geometry" />
        </mxCell>
        <mxCell id="-251E-ChE6s3VvXWPWQn-7" value="storage(SSD)" style="text;html=1;strokeColor=none;fillColor=none;align=center;verticalAlign=middle;whiteSpace=wrap;rounded=0;fontSize=16;" vertex="1" parent="1">
          <mxGeometry x="321" y="17" width="80" height="30" as="geometry" />
        </mxCell>
        <mxCell id="-251E-ChE6s3VvXWPWQn-8" value="memory(RAM)" style="text;html=1;strokeColor=none;fillColor=none;align=center;verticalAlign=middle;whiteSpace=wrap;rounded=0;fontSize=16;" vertex="1" parent="1">
          <mxGeometry x="182" y="-13" width="80" height="30" as="geometry" />
        </mxCell>
        <mxCell id="-251E-ChE6s3VvXWPWQn-9" value="process" style="rounded=0;whiteSpace=wrap;html=1;fontSize=16;" vertex="1" parent="1">
          <mxGeometry x="181.5" y="38" width="81" height="32" as="geometry" />
        </mxCell>
      </root>
    </mxGraphModel>
  </diagram>
</mxfile>
